<svg width="566" height="539" viewBox="0 0 566 539" fill="none" xmlns="http://www.w3.org/2000/svg">
<g filter="url(#filter0_dddddd_1027_14285)">
<circle cx="216.215" cy="215.852" r="34" fill="#99A1CF"/>
</g>
<g opacity="0.2" filter="url(#filter1_f_1027_14285)">
<ellipse cx="296.82" cy="261.477" rx="58.5769" ry="213.447" transform="rotate(-47.1354 296.82 261.477)" fill="#3C4999"/>
</g>
<g opacity="0.1" filter="url(#filter2_f_1027_14285)">
<ellipse cx="204.715" cy="204.793" rx="41.867" ry="147.373" transform="rotate(-47.1354 204.715 204.793)" fill="#848BBA"/>
</g>
<g opacity="0.2" filter="url(#filter3_f_1027_14285)">
<ellipse cx="354.202" cy="331.013" rx="19.7998" ry="66.009" transform="rotate(-54.9695 354.202 331.013)" fill="#828DCF"/>
</g>
<g opacity="0.18" filter="url(#filter4_f_1027_14285)">
<ellipse cx="435.751" cy="348.357" rx="23.463" ry="109.833" transform="rotate(-47.1354 435.751 348.357)" fill="#162895"/>
</g>
<path d="M514.079 432.008C508.084 439.715 496.582 443.248 479.877 442.166C463.275 441.091 442.196 435.482 418.017 425.784C369.692 406.4 309.529 370.904 249.043 323.853C188.558 276.802 139.352 227.22 108.675 185.15C93.3258 164.1 82.7034 145.049 77.577 129.221C72.419 113.296 73.0136 101.278 79.0086 93.5715C85.0036 85.8647 96.5061 82.3317 113.211 83.4133C129.813 84.4882 150.892 90.0972 175.07 99.7957C223.395 119.18 283.559 154.676 344.044 201.726C404.529 248.777 453.736 298.359 484.413 340.43C499.762 361.48 510.384 380.53 515.511 396.358C520.669 412.283 520.074 424.301 514.079 432.008Z" stroke="url(#paint0_linear_1027_14285)" stroke-opacity="0.6" stroke-width="5"/>
<rect x="297.215" y="306.852" width="17" height="232" fill="url(#paint1_linear_1027_14285)"/>
<path d="M251.495 316.185C241.02 336.423 214.074 353.677 191.311 354.723L187.632 354.892C164.868 355.939 154.906 340.382 165.382 320.145L170.388 310.474C171.435 308.45 174.13 306.725 176.406 306.62L254.276 303.04C256.553 302.935 257.549 304.491 256.501 306.515L251.495 316.185Z" fill="url(#paint2_linear_1027_14285)"/>
<path d="M249.624 314.123C239.149 334.36 212.203 351.614 189.44 352.661L187.215 352.763C164.451 353.81 154.49 338.252 164.965 318.015L168.785 310.636C169.833 308.613 172.527 306.887 174.803 306.783L253.28 303.174C254.418 303.122 254.916 303.9 254.392 304.912L249.624 314.123Z" fill="url(#paint3_linear_1027_14285)"/>
<path d="M213.046 168.984C235.818 168.984 254.307 186.937 254.307 209.049V307.208H173.394C172.506 307.208 171.786 306.488 171.786 305.599V209.049C171.786 186.937 190.275 168.984 213.046 168.984Z" fill="url(#paint4_linear_1027_14285)"/>
<path d="M216.72 168.453C238.918 168.453 256.94 186.476 256.94 208.673V307.211H176.5V208.673C176.5 186.476 194.523 168.453 216.72 168.453Z" fill="url(#paint5_linear_1027_14285)"/>
<path d="M217.174 171.047C238.238 171.047 255.341 188.732 255.341 210.514V307.207H179.008V210.514C179.008 188.732 196.111 171.047 217.174 171.047Z" fill="url(#paint6_linear_1027_14285)"/>
<path fill-rule="evenodd" clip-rule="evenodd" d="M257.382 208.317C257.382 186.04 239.128 167.953 216.646 167.953C194.164 167.953 175.911 186.04 175.911 208.317V307.208H178.002V209.932C178.002 187.907 195.323 170.024 216.658 170.024C237.992 170.024 255.313 187.907 255.313 209.932V307.208H257.382V208.317Z" fill="url(#paint7_linear_1027_14285)"/>
<path d="M150.559 283.342L128.321 216.881L245.312 215.975C246.927 215.962 248.401 216.893 249.084 218.357L275.515 275.054C276.756 277.718 274.895 280.788 271.959 280.919L154.656 286.154C152.816 286.237 151.144 285.089 150.559 283.342Z" fill="url(#paint8_linear_1027_14285)"/>
<path d="M151.628 281.586L129.423 217.226L246.423 215.798C248.032 215.778 249.505 216.695 250.198 218.147L276.523 273.33C277.796 275.998 275.933 279.099 272.98 279.228L155.709 284.362C153.884 284.442 152.224 283.313 151.628 281.586Z" fill="url(#paint9_linear_1027_14285)"/>
<path d="M208.813 258.494C182.149 245.417 132.917 220.858 128.245 216.868L247.987 216.085L213.795 257.415C212.58 258.884 210.525 259.334 208.813 258.494Z" fill="url(#paint10_linear_1027_14285)"/>
<path d="M197.189 255.458L154.886 281.567L150.808 269.163L197.189 255.458Z" fill="url(#paint11_linear_1027_14285)"/>
<path d="M218.456 257.799L254.82 266.752L249.866 275.746L218.456 257.799Z" fill="url(#paint12_linear_1027_14285)"/>
<g filter="url(#filter5_b_1027_14285)">
<path d="M374.238 168.453H217.18C239.394 168.453 257.4 186.46 257.4 208.673V307.211H428.169C430.447 307.211 432.295 305.364 432.295 303.085V226.51C432.295 194.447 406.301 168.453 374.238 168.453Z" fill="url(#paint13_linear_1027_14285)" fill-opacity="0.4"/>
</g>
<g filter="url(#filter6_b_1027_14285)">
<path d="M374.238 168.453H217.18C239.394 168.453 257.4 186.46 257.4 208.673V307.211H428.169C430.447 307.211 432.295 305.364 432.295 303.085V226.51C432.295 194.447 406.301 168.453 374.238 168.453Z" fill="url(#paint14_linear_1027_14285)" fill-opacity="0.4"/>
</g>
<g filter="url(#filter7_i_1027_14285)">
<path d="M374.238 168.453H217.18C239.394 168.453 257.4 186.46 257.4 208.673V307.211H428.169C430.447 307.211 432.295 305.364 432.295 303.085V226.51C432.295 194.447 406.301 168.453 374.238 168.453Z" fill="url(#paint15_linear_1027_14285)" fill-opacity="0.4"/>
</g>
<g opacity="0.49">
<path d="M374.238 168.453H217.18C239.394 168.453 257.4 186.46 257.4 208.673V307.211H428.169C430.447 307.211 432.295 305.364 432.295 303.085V226.51C432.295 194.447 406.301 168.453 374.238 168.453Z" fill="url(#paint16_linear_1027_14285)"/>
</g>
<g filter="url(#filter8_f_1027_14285)">
<ellipse cx="324.968" cy="182.915" rx="71.6905" ry="4.64183" fill="#D0D7FE"/>
</g>
<path d="M292.473 253.939L293.147 139.081C293.177 134.269 297.983 130.814 302.805 132.135L333.503 140.547C334.76 140.888 335.653 141.94 335.759 143.189L336.818 155.853C336.97 157.66 335.426 159.177 333.541 159.083L308.345 157.813V254.07C308.345 257.517 306.006 260.645 302.532 261.545C302.35 261.596 302.161 261.632 301.972 261.676C297.015 262.634 292.443 258.787 292.473 253.939Z" fill="url(#paint17_linear_1027_14285)"/>
<path d="M294.516 253.863L295.161 139.201C295.19 134.398 299.791 130.949 304.406 132.268L333.792 140.665C334.995 141.005 335.85 142.056 335.951 143.302L336.966 155.945C337.11 157.749 335.632 159.263 333.828 159.169L309.709 157.901V253.994C309.709 257.435 307.471 260.558 304.145 261.456C303.971 261.507 303.79 261.543 303.609 261.587C298.871 262.55 294.494 258.71 294.516 253.87V253.863Z" fill="url(#paint18_linear_1027_14285)"/>
<path d="M313.388 274.131L312.927 241.221C312.919 240.629 312.437 240.156 311.85 240.156L308.429 240.156L308.429 240.173C308.294 240.164 308.159 240.156 308.021 240.156C301.716 240.156 296.602 248.007 296.602 257.692C296.602 267.378 301.716 275.228 308.021 275.228C308.159 275.228 308.294 275.22 308.429 275.212L308.429 275.228L312.225 275.228C312.841 275.228 313.355 274.747 313.392 274.131L313.388 274.131ZM301.492 257.692C301.492 250.453 304.35 244.247 308.424 241.571L308.424 273.817C304.35 271.142 301.492 264.931 301.492 257.696L301.492 257.692Z" fill="url(#paint19_linear_1027_14285)"/>
<path d="M301.49 257.692C301.49 267.377 306.146 275.228 311.889 275.228C317.633 275.228 322.288 267.377 322.288 257.692C322.288 248.007 317.633 240.156 311.889 240.156C306.146 240.156 301.49 248.007 301.49 257.692Z" fill="url(#paint20_linear_1027_14285)"/>
<path d="M303.822 257.692C303.822 266.237 307.747 273.165 312.59 273.165C317.432 273.165 321.358 266.237 321.358 257.692C321.358 249.147 317.432 242.219 312.59 242.219C307.747 242.219 303.822 249.147 303.822 257.692Z" fill="url(#paint21_linear_1027_14285)"/>
<path d="M303.822 257.692C303.822 266.237 307.055 273.165 311.042 273.165C315.03 273.165 318.263 266.237 318.263 257.692C318.263 249.147 315.03 242.219 311.042 242.219C307.055 242.219 303.822 249.147 303.822 257.692Z" fill="url(#paint22_linear_1027_14285)"/>
<rect x="255.34" y="221.594" width="2.06304" height="76.3324" fill="url(#paint23_linear_1027_14285)"/>
<path d="M154.845 105.475L165.264 44.8782L206.292 138.297C206.846 139.557 207.107 141.292 206.965 142.766L200.862 206.003C200.716 206.05 200.552 205.916 200.423 205.645L155.517 110.603C154.844 109.179 154.569 107.08 154.845 105.475Z" fill="url(#paint24_linear_1027_14285)"/>
<path d="M155.694 105.225L165.554 45.9814L206.704 139.016C207.269 140.295 207.532 142.068 207.376 143.558L200.857 205.981L156.356 110.288C155.699 108.874 155.429 106.814 155.694 105.225Z" fill="url(#paint25_linear_1027_14285)"/>
<path d="M181.929 136.289C176.215 106.463 165.778 51.1263 165.242 44.8078L207.17 140.458L183.96 139.595C183.135 139.564 182.296 138.204 181.929 136.289Z" fill="url(#paint26_linear_1027_14285)"/>
<path d="M178.712 124.997L156.837 107.827L158.807 96.5706L178.712 124.997Z" fill="url(#paint27_linear_1027_14285)"/>
<path d="M185.481 143.581L195.701 178.543L191.517 180.352L185.481 143.581Z" fill="url(#paint28_linear_1027_14285)"/>
<defs>
<filter id="filter0_dddddd_1027_14285" x="0.77533" y="0.41156" width="430.88" height="430.88" filterUnits="userSpaceOnUse" color-interpolation-filters="sRGB">
<feFlood flood-opacity="0" result="BackgroundImageFix"/>
<feColorMatrix in="SourceAlpha" type="matrix" values="0 0 0 0 0 0 0 0 0 0 0 0 0 0 0 0 0 0 127 0" result="hardAlpha"/>
<feOffset/>
<feGaussianBlur stdDeviation="2.16"/>
<feColorMatrix type="matrix" values="0 0 0 0 0.6 0 0 0 0 0.631373 0 0 0 0 0.811765 0 0 0 1 0"/>
<feBlend mode="normal" in2="BackgroundImageFix" result="effect1_dropShadow_1027_14285"/>
<feColorMatrix in="SourceAlpha" type="matrix" values="0 0 0 0 0 0 0 0 0 0 0 0 0 0 0 0 0 0 127 0" result="hardAlpha"/>
<feOffset/>
<feGaussianBlur stdDeviation="4.32"/>
<feColorMatrix type="matrix" values="0 0 0 0 0.6 0 0 0 0 0.631373 0 0 0 0 0.811765 0 0 0 1 0"/>
<feBlend mode="normal" in2="effect1_dropShadow_1027_14285" result="effect2_dropShadow_1027_14285"/>
<feColorMatrix in="SourceAlpha" type="matrix" values="0 0 0 0 0 0 0 0 0 0 0 0 0 0 0 0 0 0 127 0" result="hardAlpha"/>
<feOffset/>
<feGaussianBlur stdDeviation="15.12"/>
<feColorMatrix type="matrix" values="0 0 0 0 0.6 0 0 0 0 0.631373 0 0 0 0 0.811765 0 0 0 1 0"/>
<feBlend mode="normal" in2="effect2_dropShadow_1027_14285" result="effect3_dropShadow_1027_14285"/>
<feColorMatrix in="SourceAlpha" type="matrix" values="0 0 0 0 0 0 0 0 0 0 0 0 0 0 0 0 0 0 127 0" result="hardAlpha"/>
<feOffset/>
<feGaussianBlur stdDeviation="30.24"/>
<feColorMatrix type="matrix" values="0 0 0 0 0.6 0 0 0 0 0.631373 0 0 0 0 0.811765 0 0 0 1 0"/>
<feBlend mode="normal" in2="effect3_dropShadow_1027_14285" result="effect4_dropShadow_1027_14285"/>
<feColorMatrix in="SourceAlpha" type="matrix" values="0 0 0 0 0 0 0 0 0 0 0 0 0 0 0 0 0 0 127 0" result="hardAlpha"/>
<feOffset/>
<feGaussianBlur stdDeviation="51.84"/>
<feColorMatrix type="matrix" values="0 0 0 0 0.6 0 0 0 0 0.631373 0 0 0 0 0.811765 0 0 0 1 0"/>
<feBlend mode="normal" in2="effect4_dropShadow_1027_14285" result="effect5_dropShadow_1027_14285"/>
<feColorMatrix in="SourceAlpha" type="matrix" values="0 0 0 0 0 0 0 0 0 0 0 0 0 0 0 0 0 0 127 0" result="hardAlpha"/>
<feOffset/>
<feGaussianBlur stdDeviation="90.72"/>
<feColorMatrix type="matrix" values="0 0 0 0 0.6 0 0 0 0 0.631373 0 0 0 0 0.811765 0 0 0 1 0"/>
<feBlend mode="normal" in2="effect5_dropShadow_1027_14285" result="effect6_dropShadow_1027_14285"/>
<feBlend mode="normal" in="SourceGraphic" in2="effect6_dropShadow_1027_14285" result="shape"/>
</filter>
<filter id="filter1_f_1027_14285" x="95.3381" y="70.0219" width="402.965" height="382.911" filterUnits="userSpaceOnUse" color-interpolation-filters="sRGB">
<feFlood flood-opacity="0" result="BackgroundImageFix"/>
<feBlend mode="normal" in="SourceGraphic" in2="BackgroundImageFix" result="shape"/>
<feGaussianBlur stdDeviation="20" result="effect1_foregroundBlur_1027_14285"/>
</filter>
<filter id="filter2_f_1027_14285" x="52.9769" y="59.9204" width="303.477" height="289.745" filterUnits="userSpaceOnUse" color-interpolation-filters="sRGB">
<feFlood flood-opacity="0" result="BackgroundImageFix"/>
<feBlend mode="normal" in="SourceGraphic" in2="BackgroundImageFix" result="shape"/>
<feGaussianBlur stdDeviation="20" result="effect1_foregroundBlur_1027_14285"/>
</filter>
<filter id="filter3_f_1027_14285" x="258.958" y="249.789" width="190.489" height="162.447" filterUnits="userSpaceOnUse" color-interpolation-filters="sRGB">
<feFlood flood-opacity="0" result="BackgroundImageFix"/>
<feBlend mode="normal" in="SourceGraphic" in2="BackgroundImageFix" result="shape"/>
<feGaussianBlur stdDeviation="20" result="effect1_foregroundBlur_1027_14285"/>
</filter>
<filter id="filter4_f_1027_14285" x="313.665" y="231.67" width="244.172" height="233.373" filterUnits="userSpaceOnUse" color-interpolation-filters="sRGB">
<feFlood flood-opacity="0" result="BackgroundImageFix"/>
<feBlend mode="normal" in="SourceGraphic" in2="BackgroundImageFix" result="shape"/>
<feGaussianBlur stdDeviation="20" result="effect1_foregroundBlur_1027_14285"/>
</filter>
<filter id="filter5_b_1027_14285" x="211.18" y="162.453" width="227.115" height="150.758" filterUnits="userSpaceOnUse" color-interpolation-filters="sRGB">
<feFlood flood-opacity="0" result="BackgroundImageFix"/>
<feGaussianBlur in="BackgroundImageFix" stdDeviation="3"/>
<feComposite in2="SourceAlpha" operator="in" result="effect1_backgroundBlur_1027_14285"/>
<feBlend mode="normal" in="SourceGraphic" in2="effect1_backgroundBlur_1027_14285" result="shape"/>
</filter>
<filter id="filter6_b_1027_14285" x="205.18" y="156.453" width="239.115" height="162.758" filterUnits="userSpaceOnUse" color-interpolation-filters="sRGB">
<feFlood flood-opacity="0" result="BackgroundImageFix"/>
<feGaussianBlur in="BackgroundImageFix" stdDeviation="6"/>
<feComposite in2="SourceAlpha" operator="in" result="effect1_backgroundBlur_1027_14285"/>
<feBlend mode="normal" in="SourceGraphic" in2="effect1_backgroundBlur_1027_14285" result="shape"/>
</filter>
<filter id="filter7_i_1027_14285" x="217.18" y="168.453" width="215.115" height="142.758" filterUnits="userSpaceOnUse" color-interpolation-filters="sRGB">
<feFlood flood-opacity="0" result="BackgroundImageFix"/>
<feBlend mode="normal" in="SourceGraphic" in2="BackgroundImageFix" result="shape"/>
<feColorMatrix in="SourceAlpha" type="matrix" values="0 0 0 0 0 0 0 0 0 0 0 0 0 0 0 0 0 0 127 0" result="hardAlpha"/>
<feOffset dy="4"/>
<feGaussianBlur stdDeviation="2"/>
<feComposite in2="hardAlpha" operator="arithmetic" k2="-1" k3="1"/>
<feColorMatrix type="matrix" values="0 0 0 0 0 0 0 0 0 0 0 0 0 0 0 0 0 0 0.25 0"/>
<feBlend mode="normal" in2="shape" result="effect1_innerShadow_1027_14285"/>
</filter>
<filter id="filter8_f_1027_14285" x="232.647" y="157.643" width="184.642" height="50.5444" filterUnits="userSpaceOnUse" color-interpolation-filters="sRGB">
<feFlood flood-opacity="0" result="BackgroundImageFix"/>
<feBlend mode="normal" in="SourceGraphic" in2="BackgroundImageFix" result="shape"/>
<feGaussianBlur stdDeviation="10.3152" result="effect1_foregroundBlur_1027_14285"/>
</filter>
<linearGradient id="paint0_linear_1027_14285" x1="216.463" y1="384.865" x2="423.794" y2="147.357" gradientUnits="userSpaceOnUse">
<stop offset="0.280455" stop-color="#A1ABE8" stop-opacity="0.42"/>
<stop offset="0.847349" stop-opacity="0"/>
</linearGradient>
<linearGradient id="paint1_linear_1027_14285" x1="285.528" y1="423.5" x2="326.965" y2="423.5" gradientUnits="userSpaceOnUse">
<stop stop-color="#4853A4"/>
<stop offset="0.425205" stop-color="#838FD2"/>
<stop offset="1" stop-color="#4853A4"/>
</linearGradient>
<linearGradient id="paint2_linear_1027_14285" x1="164.23" y1="355.873" x2="195.947" y2="284.053" gradientUnits="userSpaceOnUse">
<stop stop-color="#919BD4"/>
<stop offset="1" stop-color="#4853A4"/>
</linearGradient>
<linearGradient id="paint3_linear_1027_14285" x1="213.011" y1="305.026" x2="215.147" y2="351.479" gradientUnits="userSpaceOnUse">
<stop stop-color="#919BD4"/>
<stop offset="1" stop-color="#4853A4"/>
</linearGradient>
<linearGradient id="paint4_linear_1027_14285" x1="213.046" y1="307.208" x2="213.046" y2="168.984" gradientUnits="userSpaceOnUse">
<stop stop-color="#21285F"/>
<stop offset="1" stop-color="#3B4377"/>
</linearGradient>
<linearGradient id="paint5_linear_1027_14285" x1="216.72" y1="168.453" x2="308.978" y2="314.945" gradientUnits="userSpaceOnUse">
<stop stop-color="#7D7BB4"/>
<stop offset="1" stop-color="#0E1755"/>
</linearGradient>
<linearGradient id="paint6_linear_1027_14285" x1="217.174" y1="171.047" x2="308.983" y2="312.021" gradientUnits="userSpaceOnUse">
<stop stop-color="#7D7BB4"/>
<stop offset="0.759113" stop-color="#0E1755"/>
</linearGradient>
<linearGradient id="paint7_linear_1027_14285" x1="216.647" y1="167.953" x2="308.868" y2="315.734" gradientUnits="userSpaceOnUse">
<stop stop-color="#9896C7"/>
<stop offset="1" stop-color="#0E1755"/>
</linearGradient>
<linearGradient id="paint8_linear_1027_14285" x1="135.186" y1="204.288" x2="222.524" y2="286.397" gradientUnits="userSpaceOnUse">
<stop offset="0.463388" stop-color="#BDC7EA"/>
<stop offset="1" stop-color="white"/>
</linearGradient>
<linearGradient id="paint9_linear_1027_14285" x1="204.11" y1="216.122" x2="272.015" y2="358.864" gradientUnits="userSpaceOnUse">
<stop offset="0.166188" stop-color="white"/>
<stop offset="0.75829" stop-color="#A8B7E4"/>
</linearGradient>
<linearGradient id="paint10_linear_1027_14285" x1="214.642" y1="123.933" x2="179.93" y2="291.965" gradientUnits="userSpaceOnUse">
<stop offset="0.614575" stop-color="white"/>
<stop offset="0.830956" stop-color="#CBD4EF"/>
</linearGradient>
<linearGradient id="paint11_linear_1027_14285" x1="155.713" y1="257.407" x2="177.422" y2="298.326" gradientUnits="userSpaceOnUse">
<stop offset="0.312596" stop-color="white" stop-opacity="0"/>
<stop offset="0.571096" stop-color="#BDC7EA"/>
</linearGradient>
<linearGradient id="paint12_linear_1027_14285" x1="246.325" y1="244.927" x2="231.881" y2="282.41" gradientUnits="userSpaceOnUse">
<stop offset="0.523195" stop-color="#E3E7F7" stop-opacity="0"/>
<stop offset="0.736978" stop-color="#BDC7EA"/>
</linearGradient>
<linearGradient id="paint13_linear_1027_14285" x1="324.538" y1="168.453" x2="324.538" y2="380.446" gradientUnits="userSpaceOnUse">
<stop stop-color="#8994CD"/>
<stop offset="0.181738" stop-color="#7783C5"/>
<stop offset="0.660191" stop-color="#424DA0"/>
</linearGradient>
<linearGradient id="paint14_linear_1027_14285" x1="324.538" y1="168.453" x2="324.538" y2="380.446" gradientUnits="userSpaceOnUse">
<stop stop-color="#8994CD" stop-opacity="0"/>
<stop offset="0.181738" stop-color="#7783C5" stop-opacity="0"/>
<stop offset="0.660191" stop-color="#1A246E"/>
</linearGradient>
<linearGradient id="paint15_linear_1027_14285" x1="324.538" y1="168.453" x2="324.538" y2="380.446" gradientUnits="userSpaceOnUse">
<stop stop-color="#EEF0FA"/>
<stop offset="0.660191" stop-color="#1A246E" stop-opacity="0.09"/>
</linearGradient>
<linearGradient id="paint16_linear_1027_14285" x1="324.538" y1="168.453" x2="324.538" y2="380.446" gradientUnits="userSpaceOnUse">
<stop stop-color="#8994CD"/>
<stop offset="0.181738" stop-color="#7783C5"/>
<stop offset="0.660191" stop-color="#424DA0"/>
</linearGradient>
<linearGradient id="paint17_linear_1027_14285" x1="314.135" y1="178.27" x2="314.651" y2="261.823" gradientUnits="userSpaceOnUse">
<stop stop-color="#A1AACA"/>
<stop offset="0.765169" stop-color="#979FC4"/>
</linearGradient>
<linearGradient id="paint18_linear_1027_14285" x1="336.975" y1="236.539" x2="279.063" y2="124.119" gradientUnits="userSpaceOnUse">
<stop stop-color="#7783C5"/>
<stop offset="1" stop-color="#3A469B"/>
</linearGradient>
<linearGradient id="paint19_linear_1027_14285" x1="304.997" y1="240.156" x2="304.997" y2="275.228" gradientUnits="userSpaceOnUse">
<stop stop-color="#9CA6E1"/>
<stop offset="1" stop-color="#394697"/>
</linearGradient>
<linearGradient id="paint20_linear_1027_14285" x1="301.49" y1="258.983" x2="336.83" y2="255.113" gradientUnits="userSpaceOnUse">
<stop offset="0.168987" stop-color="#B3BAE1"/>
<stop offset="1" stop-color="#515CA8"/>
</linearGradient>
<linearGradient id="paint21_linear_1027_14285" x1="269.266" y1="235.514" x2="360.087" y2="248.016" gradientUnits="userSpaceOnUse">
<stop offset="0.104333" stop-color="#9DA7DD"/>
<stop offset="0.588205" stop-color="#5965AF"/>
</linearGradient>
<linearGradient id="paint22_linear_1027_14285" x1="275.364" y1="235.514" x2="350.608" y2="244.044" gradientUnits="userSpaceOnUse">
<stop offset="0.374165" stop-color="#9DA7DD"/>
<stop offset="0.792039" stop-color="#5965AF"/>
</linearGradient>
<linearGradient id="paint23_linear_1027_14285" x1="256.372" y1="221.594" x2="256.372" y2="314.43" gradientUnits="userSpaceOnUse">
<stop stop-color="#67699F"/>
<stop offset="1" stop-color="#2C326E"/>
</linearGradient>
<linearGradient id="paint24_linear_1027_14285" x1="171.098" y1="42.2884" x2="149.308" y2="159.732" gradientUnits="userSpaceOnUse">
<stop offset="0.463388" stop-color="#BDC7EA"/>
<stop offset="1" stop-color="white"/>
</linearGradient>
<linearGradient id="paint25_linear_1027_14285" x1="191.874" y1="105.246" x2="110.763" y2="183.339" gradientUnits="userSpaceOnUse">
<stop offset="0.166188" stop-color="white"/>
<stop offset="0.75829" stop-color="#A8B7E4"/>
</linearGradient>
<linearGradient id="paint26_linear_1027_14285" x1="220.748" y1="54.3867" x2="145.052" y2="77.9939" gradientUnits="userSpaceOnUse">
<stop offset="0.614575" stop-color="white"/>
<stop offset="0.830956" stop-color="#CBD4EF"/>
</linearGradient>
<linearGradient id="paint27_linear_1027_14285" x1="163.73" y1="92.9457" x2="140.206" y2="118.089" gradientUnits="userSpaceOnUse">
<stop offset="0.312596" stop-color="white" stop-opacity="0"/>
<stop offset="0.571096" stop-color="#BDC7EA"/>
</linearGradient>
<linearGradient id="paint28_linear_1027_14285" x1="198.709" y1="157.678" x2="181.457" y2="161.667" gradientUnits="userSpaceOnUse">
<stop offset="0.523195" stop-color="#E3E7F7" stop-opacity="0"/>
<stop offset="0.736978" stop-color="#BDC7EA"/>
</linearGradient>
</defs>
</svg>
