<svg width="24" height="24" viewBox="0 0 24 24" fill="none" xmlns="http://www.w3.org/2000/svg">
<g id="Frame 2087326768">
<path id="Chevron" d="M17 11.5952C16.9945 11.7889 16.9557 11.966 16.8838 12.1265C16.8118 12.2869 16.7012 12.4419 16.5518 12.5913L8.23438 20.6431C7.99642 20.881 7.70312 21 7.35449 21C7.12207 21 6.91178 20.9447 6.72363 20.834C6.52995 20.7233 6.37777 20.5739 6.26709 20.3857C6.15088 20.1976 6.09277 19.9873 6.09277 19.7549C6.09277 19.4118 6.22282 19.1102 6.48291 18.8501L14.0034 11.6035L6.48291 4.34863C6.22282 4.08301 6.09277 3.78141 6.09277 3.44385C6.09277 3.20589 6.15088 2.99284 6.26709 2.80469C6.37777 2.61654 6.52995 2.46712 6.72363 2.35644C6.91179 2.24023 7.12207 2.18213 7.35449 2.18213C7.70313 2.18213 7.99642 2.30387 8.23438 2.54736L16.5518 10.5991C16.7067 10.7485 16.8202 10.9035 16.8921 11.064C16.964 11.23 17 11.4071 17 11.5952Z" fill="#3E4151"/>
</g>
</svg>
