<svg width="20" height="20" viewBox="0 0 20 20" fill="none" xmlns="http://www.w3.org/2000/svg">
<g clip-path="url(#clip0_250_814)">
<path d="M6.66667 14.1667C6.20833 14.1667 5.81597 14.0035 5.48958 13.6771C5.16319 13.3507 5 12.9583 5 12.5V7.5C5 7.04167 5.16319 6.64931 5.48958 6.32292C5.81597 5.99653 6.20833 5.83333 6.66667 5.83333H7.5L8.33333 5H11.6667L12.5 5.83333H13.3333C13.7917 5.83333 14.184 5.99653 14.5104 6.32292C14.8368 6.64931 15 7.04167 15 7.5V12.5C15 12.9583 14.8368 13.3507 14.5104 13.6771C14.184 14.0035 13.7917 14.1667 13.3333 14.1667H6.66667ZM6.66667 12.5H13.3333V7.5H6.66667V12.5ZM10 11.6667C10.4583 11.6667 10.8507 11.5035 11.1771 11.1771C11.5035 10.8507 11.6667 10.4583 11.6667 10C11.6667 9.54167 11.5035 9.14931 11.1771 8.82292C10.8507 8.49653 10.4583 8.33333 10 8.33333C9.54167 8.33333 9.14931 8.49653 8.82292 8.82292C8.49653 9.14931 8.33333 9.54167 8.33333 10C8.33333 10.4583 8.49653 10.8507 8.82292 11.1771C9.14931 11.5035 9.54167 11.6667 10 11.6667ZM7.125 0.416667C7.59722 0.263889 8.07292 0.15625 8.55208 0.09375C9.03125 0.03125 9.51389 0 10 0C11.3056 0 12.5382 0.232639 13.6979 0.697917C14.8576 1.16319 15.8854 1.80903 16.7813 2.63542C17.6771 3.46181 18.4097 4.43403 18.9792 5.55208C19.5486 6.67014 19.8889 7.875 20 9.16667H18.3333C18.2361 8.16667 17.9722 7.23264 17.5417 6.36458C17.1111 5.49653 16.559 4.73264 15.8854 4.07292C15.2118 3.41319 14.4375 2.875 13.5625 2.45833C12.6875 2.04167 11.75 1.79167 10.75 1.70833L12.0417 3L10.875 4.16667L7.125 0.416667ZM12.875 19.5833C12.4028 19.7361 11.9271 19.8438 11.4479 19.9063C10.9688 19.9688 10.4861 20 10 20C8.69444 20 7.46181 19.7674 6.30208 19.3021C5.14236 18.8368 4.11458 18.191 3.21875 17.3646C2.32292 16.5382 1.59028 15.566 1.02083 14.4479C0.451389 13.3299 0.111111 12.125 0 10.8333H1.66667C1.77778 11.8333 2.04514 12.7674 2.46875 13.6354C2.89236 14.5035 3.44097 15.2674 4.11458 15.9271C4.78819 16.5868 5.5625 17.125 6.4375 17.5417C7.3125 17.9583 8.25 18.2083 9.25 18.2917L7.95833 17L9.125 15.8333L12.875 19.5833Z" fill="#5B5F70"/>
</g>
<defs>
<clipPath id="clip0_250_814">
<rect width="20" height="20" fill="white"/>
</clipPath>
</defs>
</svg>
