<svg xmlns="http://www.w3.org/2000/svg" width="20" height="20" viewBox="0 0 20 20" fill="none">
<path d="M15.8337 3.33341H14.167V2.50008C14.167 2.27907 14.0792 2.06711 13.9229 1.91083C13.7666 1.75455 13.5547 1.66675 13.3337 1.66675C13.1126 1.66675 12.9007 1.75455 12.7444 1.91083C12.5881 2.06711 12.5003 2.27907 12.5003 2.50008V3.33341H7.50033V2.50008C7.50033 2.27907 7.41253 2.06711 7.25625 1.91083C7.09997 1.75455 6.88801 1.66675 6.66699 1.66675C6.44598 1.66675 6.23402 1.75455 6.07774 1.91083C5.92146 2.06711 5.83366 2.27907 5.83366 2.50008V3.33341H4.16699C3.50395 3.33341 2.86807 3.59681 2.39923 4.06565C1.93038 4.53449 1.66699 5.17037 1.66699 5.83341V15.8334C1.66699 16.4965 1.93038 17.1323 2.39923 17.6012C2.86807 18.07 3.50395 18.3334 4.16699 18.3334H15.8337C16.4967 18.3334 17.1326 18.07 17.6014 17.6012C18.0703 17.1323 18.3337 16.4965 18.3337 15.8334V5.83341C18.3337 5.17037 18.0703 4.53449 17.6014 4.06565C17.1326 3.59681 16.4967 3.33341 15.8337 3.33341V3.33341ZM16.667 15.8334C16.667 16.0544 16.5792 16.2664 16.4229 16.4227C16.2666 16.579 16.0547 16.6667 15.8337 16.6667H4.16699C3.94598 16.6667 3.73402 16.579 3.57774 16.4227C3.42146 16.2664 3.33366 16.0544 3.33366 15.8334V10.0001H16.667V15.8334ZM16.667 8.33342H3.33366V5.83341C3.33366 5.6124 3.42146 5.40044 3.57774 5.24416C3.73402 5.08788 3.94598 5.00008 4.16699 5.00008H5.83366V5.83341C5.83366 6.05443 5.92146 6.26639 6.07774 6.42267C6.23402 6.57895 6.44598 6.66675 6.66699 6.66675C6.88801 6.66675 7.09997 6.57895 7.25625 6.42267C7.41253 6.26639 7.50033 6.05443 7.50033 5.83341V5.00008H12.5003V5.83341C12.5003 6.05443 12.5881 6.26639 12.7444 6.42267C12.9007 6.57895 13.1126 6.66675 13.3337 6.66675C13.5547 6.66675 13.7666 6.57895 13.9229 6.42267C14.0792 6.26639 14.167 6.05443 14.167 5.83341V5.00008H15.8337C16.0547 5.00008 16.2666 5.08788 16.4229 5.24416C16.5792 5.40044 16.667 5.6124 16.667 5.83341V8.33342Z" fill="#5B5F70"/>
</svg>