<svg width="24" height="24" viewBox="0 0 24 24" fill="none" xmlns="http://www.w3.org/2000/svg">
<path d="M11.9955 0C5.37139 0 0 4.40575 0 9.84264C0 13.3579 2.24409 16.4372 5.62373 18.1855L4.40706 22.7084C4.40706 22.7084 4.38453 22.9193 4.51521 22.999C4.64589 23.0786 4.8036 23.0177 4.8036 23.0177C5.18213 22.9615 9.17461 20.0415 9.87307 19.5353C10.5625 19.6384 11.279 19.69 12.0045 19.69C18.6286 19.69 24 15.2842 24 9.84733C24 4.41044 18.6196 0 11.9955 0Z" fill="white"/>
<path d="M5.36153 13.2734C4.9785 13.2734 4.66757 12.964 4.66757 12.5844V8.30519H3.58609C3.21207 8.30519 2.91016 7.99116 2.91016 7.60214C2.91016 7.21312 3.21658 6.8991 3.58609 6.8991H7.13246C7.50648 6.8991 7.80839 7.21312 7.80839 7.60214C7.80839 7.99116 7.50197 8.30519 7.13246 8.30519H6.05097V12.5844C6.05097 12.9594 5.73554 13.2734 5.35702 13.2734H5.36153ZM11.4314 13.264C11.143 13.264 10.9222 13.1421 10.8546 12.9453L10.5121 12.0079H8.40321L8.06074 12.9453C7.99315 13.1421 7.77234 13.264 7.48394 13.264C7.33073 13.264 7.18203 13.2312 7.04234 13.1703C6.85308 13.0765 6.66832 12.8281 6.88011 12.1485L8.53389 7.6162C8.65105 7.26937 9.00704 6.91316 9.45766 6.90378C9.90828 6.89441 10.2688 7.26937 10.3814 7.6162L12.0352 12.1485C12.247 12.8281 12.0622 13.0859 11.873 13.1703C11.7378 13.2359 11.5846 13.264 11.4314 13.264ZM10.1471 10.733L9.45766 8.68952L8.76821 10.733H10.1471ZM13.1482 13.1703C12.7877 13.1703 12.4858 12.875 12.4858 12.5141V7.6162C12.4858 7.21781 12.8013 6.89441 13.1933 6.89441C13.5853 6.89441 13.9008 7.2225 13.9008 7.6162V11.8439H15.3698C15.7303 11.8439 16.0322 12.1391 16.0322 12.5C16.0322 12.8609 15.7348 13.1562 15.3698 13.1562L13.1482 13.1703ZM16.2981 12.5422V7.62089C16.2981 7.2225 16.6135 6.8991 16.992 6.8991C17.3705 6.8991 17.686 7.22719 17.686 7.62089V9.16759L19.6236 7.15219C19.8369 6.93034 20.2402 6.94979 20.4843 7.20375C20.7137 7.44231 20.7733 7.84554 20.5339 8.09896L18.9477 9.7394L20.651 12.0829C20.8799 12.3876 20.8244 12.8622 20.5159 13.0859C20.2117 13.3202 19.7648 13.2421 19.547 12.9453L17.9248 10.7096L17.686 10.958V12.5282C17.686 13.4634 16.2981 13.4994 16.2981 12.5422Z" fill="#424DA0"/>
</svg>
