<svg width="24" height="24" viewBox="0 0 24 24" fill="none" xmlns="http://www.w3.org/2000/svg">
<path d="M14.9707 12.5675C15.7589 11.9507 16.3342 11.105 16.6166 10.148C16.899 9.19097 16.8744 8.1702 16.5463 7.22771C16.2182 6.28521 15.6028 5.46786 14.7859 4.88937C13.9689 4.31087 12.991 4 11.9881 4C10.9852 4 10.0072 4.31087 9.19027 4.88937C8.37331 5.46786 7.75797 6.28521 7.42985 7.22771C7.10173 8.1702 7.07716 9.19097 7.35954 10.148C7.64193 11.105 8.21723 11.9507 9.00542 12.5675C7.65485 13.1056 6.47642 13.9981 5.59578 15.1499C4.71514 16.3017 4.16529 17.6696 4.00485 19.1077C3.99324 19.2127 4.00253 19.3189 4.0322 19.4204C4.06188 19.5218 4.11135 19.6164 4.17779 19.6988C4.31197 19.8652 4.50714 19.9718 4.72037 19.9952C4.93359 20.0185 5.14739 19.9566 5.31475 19.8232C5.4821 19.6897 5.5893 19.4956 5.61275 19.2836C5.78929 17.7206 6.53865 16.2772 7.71767 15.229C8.89669 14.1807 10.4227 13.6013 12.0042 13.6013C13.5856 13.6013 15.1116 14.1807 16.2906 15.229C17.4697 16.2772 18.219 17.7206 18.3956 19.2836C18.4174 19.48 18.5117 19.6615 18.6601 19.7929C18.8086 19.9243 19.0008 19.9964 19.1995 19.9952H19.2879C19.4987 19.9711 19.6913 19.8651 19.8238 19.7003C19.9563 19.5356 20.018 19.3254 19.9954 19.1157C19.8342 17.6735 19.2814 16.3021 18.3962 15.1485C17.5111 13.995 16.3269 13.1027 14.9707 12.5675ZM11.9881 11.9998C11.3521 11.9998 10.7303 11.8122 10.2015 11.4608C9.67264 11.1094 9.26046 10.6099 9.01706 10.0255C8.77367 9.44112 8.70998 8.79808 8.83406 8.1777C8.95815 7.55732 9.26442 6.98746 9.71416 6.54019C10.1639 6.09292 10.7369 5.78833 11.3607 5.66492C11.9845 5.54152 12.6311 5.60486 13.2187 5.84692C13.8063 6.08898 14.3086 6.49889 14.6619 7.02483C15.0153 7.55076 15.2039 8.16909 15.2039 8.80163C15.2039 9.64983 14.8651 10.4633 14.262 11.0631C13.6589 11.6628 12.841 11.9998 11.9881 11.9998Z" fill="white"/>
</svg>
