<svg width="28" height="28" viewBox="0 0 28 28" fill="none" xmlns="http://www.w3.org/2000/svg">
<path opacity="0.3" fill-rule="evenodd" clip-rule="evenodd" d="M2.33398 7C2.33398 6.07174 2.70273 5.1815 3.35911 4.52513C4.01549 3.86875 4.90573 3.5 5.83398 3.5H22.1673C23.0956 3.5 23.9858 3.86875 24.6422 4.52513C25.2986 5.1815 25.6673 6.07174 25.6673 7V18.6667C25.6673 19.5949 25.2986 20.4852 24.6422 21.1415C23.9858 21.7979 23.0956 22.1667 22.1673 22.1667H8.55582L4.66732 25.0833C3.70598 25.8043 2.33398 25.1183 2.33398 23.9167V7Z" fill="#F7F8F9"/>
<path fill-rule="evenodd" clip-rule="evenodd" d="M9.33268 13.9999C9.02326 13.9999 8.72652 14.1228 8.50772 14.3416C8.28893 14.5604 8.16602 14.8572 8.16602 15.1666C8.16602 15.476 8.28893 15.7728 8.50772 15.9915C8.72652 16.2103 9.02326 16.3333 9.33268 16.3333H12.8327C13.1421 16.3333 13.4388 16.2103 13.6576 15.9915C13.8764 15.7728 13.9993 15.476 13.9993 15.1666C13.9993 14.8572 13.8764 14.5604 13.6576 14.3416C13.4388 14.1228 13.1421 13.9999 12.8327 13.9999H9.33268ZM8.16602 10.4999C8.16602 10.1905 8.28893 9.89375 8.50772 9.67496C8.72652 9.45617 9.02326 9.33325 9.33268 9.33325H18.666C18.9754 9.33325 19.2722 9.45617 19.491 9.67496C19.7098 9.89375 19.8327 10.1905 19.8327 10.4999C19.8327 10.8093 19.7098 11.1061 19.491 11.3249C19.2722 11.5437 18.9754 11.6666 18.666 11.6666H9.33268C9.02326 11.6666 8.72652 11.5437 8.50772 11.3249C8.28893 11.1061 8.16602 10.8093 8.16602 10.4999Z" fill="#F7F8F9"/>
</svg>
