<svg width="24" height="24" viewBox="0 0 24 24" fill="none" xmlns="http://www.w3.org/2000/svg">
<g id="Frame 2087326765">
<path id="Chevron" d="M7 12.4048C7.00553 12.2111 7.04427 12.034 7.11621 11.8735C7.18815 11.7131 7.29883 11.5581 7.44824 11.4087L15.7656 3.35693C16.0036 3.11898 16.2969 3 16.6455 3C16.8779 3 17.0882 3.05534 17.2764 3.16602C17.4701 3.27669 17.6222 3.42611 17.7329 3.61426C17.8491 3.80241 17.9072 4.0127 17.9072 4.24512C17.9072 4.58822 17.7772 4.88981 17.5171 5.1499L9.99658 12.3965L17.5171 19.6514C17.7772 19.917 17.9072 20.2186 17.9072 20.5562C17.9072 20.7941 17.8491 21.0072 17.7329 21.1953C17.6222 21.3835 17.4701 21.5329 17.2764 21.6436C17.0882 21.7598 16.8779 21.8179 16.6455 21.8179C16.2969 21.8179 16.0036 21.6961 15.7656 21.4526L7.44824 13.4009C7.29329 13.2515 7.17985 13.0965 7.10791 12.936C7.03597 12.77 7 12.5929 7 12.4048Z" fill="white"/>
</g>
</svg>
