<svg width="24" height="25" viewBox="0 0 24 25" fill="none" xmlns="http://www.w3.org/2000/svg">
<g id="Frame 2087326865">
<path id="+" d="M11.9872 18.5C11.4137 18.5 10.9487 18.0351 10.9487 17.4615V13.5256H7.03846C6.46494 13.5256 6 13.0607 6 12.4872C6 11.9137 6.46494 11.4487 7.03846 11.4487H10.9487V7.53846C10.9487 6.96494 11.4137 6.5 11.9872 6.5C12.5607 6.5 13.0256 6.96494 13.0256 7.53846V11.4487H16.9615C17.5351 11.4487 18 11.9137 18 12.4872C18 13.0607 17.5351 13.5256 16.9615 13.5256H13.0256V17.4615C13.0256 18.0351 12.5607 18.5 11.9872 18.5Z" fill="white"/>
</g>
</svg>
