<svg width="40" height="40" viewBox="0 0 40 40" fill="none" xmlns="http://www.w3.org/2000/svg">
<path d="M8.34774 17.3625L13.6587 12.0513C13.9538 11.7562 14.3015 11.5454 14.7019 11.419C15.1024 11.2925 15.5133 11.2714 15.9348 11.3557L17.5787 11.7035C16.4406 13.0524 15.5449 14.2748 14.8916 15.3708C14.2383 16.4668 13.606 17.7946 12.9948 19.3542L8.34774 17.3625ZM14.8284 20.2394C15.3131 18.7219 15.9717 17.2887 16.8042 15.9398C17.6367 14.591 18.643 13.3264 19.8232 12.1461C21.6778 10.2914 23.7959 8.90562 26.1774 7.9888C28.5589 7.07198 30.7824 6.79272 32.8477 7.15102C33.206 9.2165 32.932 11.44 32.0258 13.8217C31.1196 16.2033 29.7391 18.3215 27.8845 20.1762C26.7254 21.3354 25.4609 22.3418 24.091 23.1954C22.7211 24.049 21.2774 24.7181 19.76 25.2029L14.8284 20.2394ZM23.5535 16.4457C24.0383 16.9304 24.6336 17.1728 25.3397 17.1728C26.0457 17.1728 26.6411 16.9304 27.1258 16.4457C27.6105 15.9609 27.8529 15.3655 27.8529 14.6595C27.8529 13.9534 27.6105 13.358 27.1258 12.8732C26.6411 12.3885 26.0457 12.1461 25.3397 12.1461C24.6336 12.1461 24.0383 12.3885 23.5535 12.8732C23.0688 13.358 22.8264 13.9534 22.8264 14.6595C22.8264 15.3655 23.0688 15.9609 23.5535 16.4457ZM22.6684 31.6522L20.6452 27.0049C22.2047 26.3937 23.5377 25.7614 24.6442 25.108C25.7506 24.4547 26.9783 23.5589 28.3271 22.4208L28.6432 24.0648C28.7275 24.4863 28.7064 24.9025 28.58 25.3135C28.4535 25.7245 28.2428 26.0776 27.9477 26.3726L22.6684 31.6522ZM10.371 24.2861C11.1086 23.5484 12.0043 23.1743 13.0581 23.1638C14.1118 23.1532 15.0075 23.5168 15.7452 24.2545C16.4828 24.9921 16.8516 25.8879 16.8516 26.9417C16.8516 27.9955 16.4828 28.8912 15.7452 29.6289C15.2183 30.1558 14.3384 30.609 13.1055 30.9883C11.8726 31.3677 10.1708 31.7049 8 32C8.29505 29.8291 8.63226 28.1325 9.01161 26.9101C9.39097 25.6876 9.84409 24.813 10.371 24.2861Z" fill="white"/>
</svg>
