<svg width="266" height="126" viewBox="0 0 266 126" fill="none" xmlns="http://www.w3.org/2000/svg">
<path d="M74.5257 106.478C78.459 106.478 82.1923 102.345 85.5257 95.6112H86.9923C83.259 104.811 77.9257 110.744 71.5924 110.744C66.3258 110.744 62.8592 107.078 62.8592 100.478C62.8592 89.1446 72.5258 73.4781 82.3257 73.4781C86.259 73.4781 88.7256 75.9447 88.7256 79.5447C88.7256 87.0113 79.3257 93.2779 70.1258 94.6779C69.7258 96.6112 69.5258 98.4779 69.5258 100.078C69.5258 104.411 71.5258 106.478 74.5257 106.478ZM81.9257 76.0114C77.1924 76.0114 72.6591 84.678 70.6591 92.5446C77.7924 90.7446 84.1257 85.278 84.1257 79.078C84.1257 77.1447 83.5923 76.0114 81.9257 76.0114Z" fill="white"/>
<path d="M103.958 76.6114L95.9578 99.5445C95.3579 101.478 94.6912 103.411 94.6912 104.678C94.6912 105.744 94.9579 106.411 96.0912 106.411C99.0912 106.411 102.691 101.945 105.358 96.5446H106.958C103.824 103.944 98.5578 110.411 92.6245 110.411C89.3579 110.411 88.0246 108.678 88.0246 106.011C88.0246 104.211 88.6912 101.945 89.5579 99.4779L97.5578 76.6114H92.5579L93.2912 74.8114C99.4912 74.4781 102.624 71.4115 105.558 65.9448H107.758L104.624 74.4781H111.158L110.491 76.6114H103.958Z" fill="white"/>
<path d="M123.963 76.6114L115.963 99.5445C115.363 101.478 114.696 103.411 114.696 104.678C114.696 105.744 114.963 106.411 116.096 106.411C119.096 106.411 122.696 101.945 125.363 96.5446H126.963C123.829 103.944 118.563 110.411 112.63 110.411C109.363 110.411 108.03 108.678 108.03 106.011C108.03 104.211 108.696 101.945 109.563 99.4779L117.563 76.6114H112.563L113.296 74.8114C119.496 74.4781 122.629 71.4115 125.563 65.9448H127.763L124.629 74.4781H131.163L130.496 76.6114H123.963Z" fill="white"/>
<path d="M138.317 106.478C142.25 106.478 145.983 102.345 149.317 95.6112H150.783C147.05 104.811 141.717 110.744 135.384 110.744C130.117 110.744 126.65 107.078 126.65 100.478C126.65 89.1446 136.317 73.4781 146.117 73.4781C150.05 73.4781 152.517 75.9447 152.517 79.5447C152.517 87.0113 143.117 93.2779 133.917 94.6779C133.517 96.6112 133.317 98.4779 133.317 100.078C133.317 104.411 135.317 106.478 138.317 106.478ZM145.717 76.0114C140.983 76.0114 136.45 84.678 134.45 92.5446C141.583 90.7446 147.917 85.278 147.917 79.078C147.917 77.1447 147.383 76.0114 145.717 76.0114Z" fill="white"/>
<path d="M159.2 109.811H152.6L161.067 84.278C161.8 82.078 162.667 79.2781 162.667 78.3447C162.667 77.4781 162.333 77.2114 161.8 77.2114C159.8 77.2114 156.867 80.7447 154.333 84.9447H152.733C155.8 79.0114 160.8 73.6781 165.667 73.6781C168.067 73.6781 169.2 75.4114 169.2 77.3447C169.2 79.0781 168.2 81.4114 167.067 84.278L163.133 94.9446H163.733C169.467 80.0114 175.2 73.4781 180.733 73.4781C182.333 73.4781 183.2 74.2781 183.2 75.7447C183.2 77.8114 181.466 79.9447 179.666 79.9447C178.333 79.9447 177.666 79.2114 176.266 79.2114C173.2 79.2114 167.533 85.278 159.2 109.811Z" fill="white"/>
<path d="M195.396 66.8782C192.863 66.8782 191.129 65.2115 191.129 62.7449C191.129 60.2116 192.863 58.6116 195.396 58.6116C197.929 58.6116 199.663 60.2116 199.663 62.7449C199.663 65.2115 197.929 66.8782 195.396 66.8782ZM181.129 100.345L186.863 84.2113C187.663 82.0114 188.596 79.2781 188.596 78.3447C188.596 77.4781 188.263 77.2114 187.729 77.2114C185.729 77.2114 182.796 80.7447 180.263 84.9447H178.663C181.729 79.0114 186.729 73.6781 191.596 73.6781C193.996 73.6781 195.129 75.4114 195.129 77.3447C195.129 79.0781 194.263 81.4114 193.196 84.3447L187.396 100.545C186.863 102.011 185.996 104.344 185.996 105.278C185.996 106.278 186.263 106.811 187.196 106.811C189.663 106.811 192.663 102.611 194.863 97.7446H196.396C193.996 103.678 189.663 110.411 184.196 110.411C180.663 110.411 179.463 108.544 179.463 106.144C179.463 104.611 180.196 103.011 181.129 100.345Z" fill="white"/>
<path d="M203.494 109.811H196.961L205.761 84.2113C206.561 82.0114 207.494 79.2781 207.494 78.3447C207.494 77.4781 207.161 77.2114 206.628 77.2114C204.628 77.2114 201.694 80.7447 199.161 84.9447H197.561C200.628 79.0114 205.628 73.6781 210.494 73.6781C212.894 73.6781 214.028 75.4114 214.028 77.3447C214.028 79.0781 213.028 81.4114 211.894 84.278L207.961 94.9446H208.628C215.628 80.2114 220.694 73.5448 226.094 73.5448C229.161 73.5448 230.827 75.5448 230.827 78.4114C230.827 83.278 225.961 92.8779 222.694 100.545C222.161 102.078 221.161 104.344 221.161 105.278C221.161 106.278 221.428 106.811 222.361 106.811C224.828 106.811 227.827 102.611 230.027 97.7446H231.627C229.161 103.678 224.828 110.411 219.361 110.411C215.894 110.411 214.694 108.544 214.694 106.144C214.694 104.611 215.561 103.078 216.628 100.278C220.228 91.3446 223.894 83.078 223.894 80.4114C223.894 78.9447 223.494 78.2781 222.494 78.2781C219.894 78.2781 213.294 84.8113 203.494 109.811Z" fill="white"/>
<path d="M262.884 73.3448C264.684 73.3448 265.551 73.8781 265.551 75.0114C265.551 76.2114 264.684 77.6114 262.884 77.6114C261.217 77.6114 259.751 76.4781 257.951 76.4781C257.617 76.4781 257.217 76.5447 256.817 76.6781C258.084 78.2781 258.817 80.478 258.817 83.078C258.817 91.0779 253.084 98.6779 245.417 99.5445C240.617 100.145 237.818 101.145 237.818 102.878C237.818 104.278 239.151 105.211 243.417 106.678L249.684 108.944C255.284 110.878 257.151 112.678 257.151 115.811C257.151 121.811 249.017 125.211 239.417 125.211C228.751 125.211 222.484 121.211 222.484 117.011C222.484 112.878 227.684 110.744 235.484 109.878C232.951 108.744 231.284 107.278 231.284 105.478C231.284 101.745 236.884 99.9445 241.351 99.2779C237.418 98.1445 234.818 94.6112 234.818 89.9446C234.818 81.478 241.617 73.4781 249.817 73.4781C252.217 73.4781 254.351 74.2781 255.884 75.6114C258.151 74.1448 260.951 73.3448 262.884 73.3448ZM244.084 97.3446C249.217 97.3446 253.151 88.6113 253.151 81.678C253.151 77.9447 252.084 75.6781 249.551 75.6781C244.351 75.6781 240.417 84.5447 240.417 91.3446C240.417 95.0779 241.484 97.3446 244.084 97.3446ZM247.084 114.144L238.684 111.211C238.418 111.078 238.084 111.011 237.818 110.878C231.351 111.744 227.551 113.678 227.551 116.678C227.551 120.411 233.484 122.678 240.751 122.678C248.017 122.678 251.617 120.544 251.617 117.811C251.617 116.211 249.951 115.078 247.084 114.144Z" fill="white"/>
<path d="M4.33349 113.933C3.08906 113.8 2.08907 113.311 1.33352 112.467C0.57797 111.622 0.200195 110.622 0.200195 109.467C0.200195 109.289 0.200195 109.111 0.200195 108.933C0.200195 108.8 0.222417 108.644 0.266862 108.467C0.622414 106.867 1.53352 105.311 3.00017 103.8C4.46682 102.289 6.44458 101.044 8.93345 100.067C11.4223 99.0445 14.3112 98.5334 17.6 98.5334C18.4 98.5334 19.2222 98.5778 20.0667 98.6667C20.9556 98.7111 21.8 98.8445 22.6 99.0667C23.6222 97.9112 24.6 96.6223 25.5333 95.2001C26.5111 93.7779 27.4888 92.2668 28.4666 90.6668H27.7999C27.5777 90.6668 27.3555 90.6668 27.1333 90.6668C26.9555 90.6668 26.7555 90.6445 26.5333 90.6001C23.0222 90.289 20.3334 89.3334 18.4667 87.7335C16.6445 86.1335 15.7334 83.9779 15.7334 81.2669C15.7334 80.8669 15.7556 80.4669 15.8001 80.0669C15.8889 79.6669 15.9556 79.2446 16.0001 78.8002C16.3556 76.5336 17.2445 74.5336 18.6667 72.8003C20.0889 71.0669 21.7556 69.6003 23.6667 68.4003C25.6222 67.2003 27.5555 66.267 29.4666 65.6003C31.4221 64.8892 33.0888 64.4448 34.4666 64.267C34.5554 64.267 34.6221 64.267 34.6666 64.267C34.711 64.2226 34.7554 64.2003 34.7999 64.2003C35.2888 64.2003 35.5332 64.3781 35.5332 64.7337C35.5332 65.1337 35.2221 65.3781 34.5999 65.467C33.3555 65.6892 31.9332 66.1781 30.3333 66.9336C28.7333 67.6892 27.1555 68.6892 25.6 69.9336C24.0444 71.1336 22.6889 72.5558 21.5333 74.2002C20.4222 75.8447 19.6889 77.6669 19.3334 79.6669C19.2889 79.978 19.2445 80.3113 19.2 80.6669C19.2 80.978 19.2 81.2891 19.2 81.6002C19.2 83.6446 19.8667 85.2668 21.2 86.4668C22.5778 87.6223 24.6889 88.3779 27.5333 88.7335C27.7111 88.7779 28.0666 88.8001 28.5999 88.8001H29.6666C30.9999 86.4446 32.3999 84.0446 33.8666 81.6002C35.3332 78.978 36.8443 76.4447 38.3999 74.0003C39.9998 71.5114 41.6665 69.1558 43.3998 66.9336C45.1331 64.667 46.9331 62.6892 48.7998 61.0004C52.9775 57.3115 57.2886 55.4671 61.733 55.4671C63.1996 55.4671 64.333 55.9337 65.1329 56.8671C65.9329 57.756 66.3329 58.9782 66.3329 60.5337C66.3329 60.7559 66.3107 61.0004 66.2663 61.267C66.2663 61.5337 66.2441 61.8226 66.1996 62.1337C65.5774 65.3337 64.3107 68.5114 62.3996 71.6669C60.4885 74.8225 58.0441 77.7113 55.0664 80.3335C52.0886 82.9557 48.7775 85.1335 45.1331 86.8668C41.5332 88.5557 37.8221 89.7112 33.9999 90.3334C32.6666 92.3334 31.3777 94.1556 30.1333 95.8001C28.9333 97.4445 27.8222 98.8889 26.8 100.133C28.0888 100.533 29.3555 100.956 30.5999 101.4C31.8444 101.844 33.0443 102.289 34.1999 102.733C34.9999 103.044 35.9332 103.467 36.9999 104C38.0665 104.533 39.1554 105.111 40.2665 105.733C41.0221 106.089 41.7332 106.444 42.3998 106.8C43.1109 107.156 43.7554 107.467 44.3331 107.733C45.6665 108.356 46.9776 108.867 48.2664 109.267C49.5553 109.667 50.7553 109.867 51.8664 109.867C52.7108 109.867 53.5331 109.733 54.333 109.467C54.9108 109.244 55.3775 108.489 55.733 107.2C56.0886 105.956 56.2664 104.244 56.2664 102.067C56.2664 100.911 56.1997 99.6889 56.0664 98.4C55.933 97.1112 55.6886 95.8667 55.333 94.6667C55.333 94.6223 55.3108 94.6001 55.2664 94.6001C55.2664 94.5556 55.2664 94.5112 55.2664 94.4667C55.2664 94.2001 55.3775 94.0667 55.5997 94.0667C55.9108 94.0667 56.2219 94.4001 56.533 95.0667C56.7997 95.5112 57.0664 95.9556 57.333 96.4001C57.5997 96.8445 57.8441 97.2889 58.0663 97.7334C58.6886 98.8 59.2441 99.8445 59.733 100.867C60.2219 101.844 60.4663 102.911 60.4663 104.067C60.4663 104.689 60.3552 105.4 60.133 106.2C59.8219 107.311 59.0663 108.311 57.8663 109.2C56.7108 110.133 55.6664 110.755 54.733 111.067C53.5331 111.422 52.2886 111.6 50.9997 111.6C48.9553 111.6 46.7776 111.289 44.4665 110.667C42.1554 110.044 39.9554 109.311 37.8665 108.467C35.7777 107.622 33.9999 106.889 32.5332 106.267C31.4221 105.778 30.0666 105.289 28.4666 104.8C26.9111 104.356 25.3111 103.956 23.6667 103.6C22.4222 104.844 21 106.111 19.4 107.4C17.8 108.689 16.1112 109.844 14.3334 110.867C12.6001 111.933 10.8668 112.755 9.13345 113.333C7.44457 113.911 5.84459 114.111 4.33349 113.933ZM35.4665 88.0668C38.4443 87.3112 41.4665 86.089 44.5331 84.4002C47.6442 82.7113 50.5331 80.7113 53.1997 78.4002C56.1775 75.8225 58.5775 73.1336 60.3997 70.3336C62.2219 67.4892 63.3774 64.7559 63.8663 62.1337C63.9107 61.9559 63.933 61.8004 63.933 61.667C63.933 61.5337 63.933 61.4004 63.933 61.267C63.933 59.7115 63.1107 58.9337 61.4663 58.9337C60.4885 58.9337 59.4441 59.2893 58.333 60.0004C55.8886 61.6004 52.9553 64.467 49.5331 68.6003C48.7775 69.5781 47.9775 70.6003 47.1331 71.6669C46.3331 72.6892 45.5109 73.778 44.6665 74.9336C43.1109 77.0669 41.5554 79.2669 39.9998 81.5335C38.4443 83.7557 36.9332 85.9335 35.4665 88.0668ZM5.66681 111.933C7.17791 111.933 8.73345 111.444 10.3334 110.467C11.9779 109.489 13.5556 108.289 15.0667 106.867C16.5778 105.489 17.9556 104.133 19.2 102.8C18.8889 102.8 18.5556 102.8 18.2 102.8C17.8889 102.756 17.6 102.711 17.3334 102.667C14.8445 102.533 12.5112 102.733 10.3334 103.267C8.20012 103.756 6.42236 104.467 5.00015 105.4C3.5335 106.333 2.64462 107.422 2.33351 108.667C2.28907 108.844 2.26684 109.089 2.26684 109.4C2.26684 110.155 2.55573 110.755 3.1335 111.2C3.71128 111.689 4.55571 111.933 5.66681 111.933Z" fill="white"/>
<path fill-rule="evenodd" clip-rule="evenodd" d="M142.803 35.5829C154.311 25.9327 159.473 13.1412 154.334 7.01233C149.194 0.883495 135.699 3.73819 124.191 13.3885C112.683 23.0387 107.52 35.8302 112.66 41.9591C117.799 48.0879 131.295 45.2332 142.803 35.5829ZM138.079 30.2281C147.451 22.3687 152.082 12.4587 148.421 8.09348C144.761 3.7283 134.195 6.56094 124.823 14.4204C115.45 22.2798 110.82 32.1898 114.481 36.5549C118.141 40.9201 128.706 38.0875 138.079 30.2281Z" fill="white"/>
<path d="M145.541 1.98041C145.812 1.62174 145.742 1.11083 145.383 0.839266C145.024 0.567701 144.513 0.638316 144.242 0.996989L131.106 18.3463C131.037 18.437 130.921 18.4765 130.809 18.4562C130.648 18.4269 130.482 18.4117 130.313 18.4117C129.891 18.4117 129.491 18.5063 129.133 18.6754C129.017 18.7301 128.878 18.7128 128.788 18.6224L117.907 7.74141C117.585 7.41964 117.063 7.41964 116.742 7.74141C116.42 8.06319 116.42 8.5849 116.742 8.90667L127.677 19.8422C127.762 19.9272 127.783 20.0559 127.739 20.1678C127.652 20.3901 127.593 20.6265 127.566 20.8726C127.554 20.9876 127.481 21.0889 127.372 21.1279L121.093 23.3717C120.669 23.5231 120.448 23.9893 120.6 24.4129C120.751 24.8366 121.217 25.0573 121.641 24.9059L126.913 23.0218C127.178 22.9271 127.404 23.2352 127.234 23.4597L121.525 31.0001C121.254 31.3588 121.324 31.8697 121.683 32.1413C122.042 32.4128 122.553 32.3422 122.824 31.9836L128.981 23.8516C129.062 23.7442 129.208 23.7104 129.333 23.7581C129.638 23.8735 129.968 23.9367 130.313 23.9367C130.668 23.9367 131.007 23.8697 131.319 23.7476C131.431 23.7038 131.56 23.7246 131.644 23.8096L153.109 45.2742C153.431 45.5959 153.953 45.5959 154.274 45.2742C154.596 44.9524 154.596 44.4307 154.274 44.1089L132.864 22.6989C132.774 22.6084 132.757 22.4692 132.811 22.3536C132.98 21.9959 133.075 21.5961 133.075 21.1742C133.075 21.1339 133.074 21.0939 133.072 21.0541C133.067 20.9214 133.142 20.7959 133.268 20.7512L140.906 18.0217C141.329 17.8703 141.55 17.4042 141.399 16.9805C141.247 16.5569 140.781 16.3362 140.358 16.4876L133.3 19.0095C133.035 19.1043 132.809 18.7962 132.979 18.5717L145.541 1.98041Z" fill="white"/>
</svg>
