<svg width="345" height="60" viewBox="0 0 345 60" fill="none" xmlns="http://www.w3.org/2000/svg">
<rect width="345" height="60" rx="12" fill="#FFDF36"/>
<path d="M104.495 18C97.8714 18 92.5 22.4058 92.5 27.8426C92.5 31.3579 94.7441 34.4372 98.1237 36.1855L96.9071 40.7084C96.9071 40.7084 96.8845 40.9193 97.0152 40.999C97.1459 41.0786 97.3036 41.0177 97.3036 41.0177C97.6821 40.9615 101.675 38.0415 102.373 37.5353C103.063 37.6384 103.779 37.69 104.505 37.69C111.129 37.69 116.5 33.2842 116.5 27.8473C116.5 22.4104 111.12 18 104.495 18Z" fill="black"/>
<path d="M97.8623 31.2735C97.4792 31.2735 97.1683 30.9642 97.1683 30.5845V26.3053H96.0868C95.7128 26.3053 95.4109 25.9913 95.4109 25.6023C95.4109 25.2132 95.7173 24.8992 96.0868 24.8992H99.6332C100.007 24.8992 100.309 25.2132 100.309 25.6023C100.309 25.9913 100.003 26.3053 99.6332 26.3053H98.5517V30.5845C98.5517 30.9595 98.2363 31.2735 97.8578 31.2735H97.8623ZM103.932 31.2641C103.644 31.2641 103.423 31.1423 103.355 30.9454L103.013 30.008H100.904L100.561 30.9454C100.494 31.1423 100.273 31.2641 99.9847 31.2641C99.8315 31.2641 99.6828 31.2313 99.5431 31.1704C99.3538 31.0766 99.1691 30.8282 99.3808 30.1486L101.035 25.6163C101.152 25.2695 101.508 24.9133 101.958 24.9039C102.409 24.8945 102.77 25.2695 102.882 25.6163L104.536 30.1486C104.748 30.8282 104.563 31.086 104.374 31.1704C104.239 31.236 104.085 31.2641 103.932 31.2641ZM102.648 28.7332L101.958 26.6896L101.269 28.7332H102.648ZM105.649 31.1704C105.288 31.1704 104.987 30.8751 104.987 30.5142V25.6163C104.987 25.2179 105.302 24.8945 105.694 24.8945C106.086 24.8945 106.402 25.2226 106.402 25.6163V29.844H107.871C108.231 29.844 108.533 30.1393 108.533 30.5002C108.533 30.861 108.236 31.1563 107.871 31.1563L105.649 31.1704ZM108.799 30.5423V25.621C108.799 25.2226 109.114 24.8992 109.493 24.8992C109.871 24.8992 110.187 25.2273 110.187 25.621V27.1677L112.124 25.1523C112.338 24.9305 112.741 24.9499 112.985 25.2039C113.214 25.4424 113.274 25.8457 113.035 26.0991L111.448 27.7395L113.152 30.083C113.381 30.3877 113.325 30.8624 113.017 31.086C112.712 31.3204 112.266 31.2423 112.048 30.9454L110.426 28.7097L110.187 28.9581V30.5283C110.187 31.4635 108.799 31.4995 108.799 30.5423Z" fill="#FFE812"/>
<path d="M137.289 23.7383C137.28 28.5371 135.971 32.6592 130.117 35.5684L129.045 34.0918C131.796 32.7383 133.439 31.1475 134.362 29.2666L129.414 29.7324L129.168 28.0449L134.951 27.6846C135.153 26.9375 135.285 26.1553 135.347 25.3203H129.994V23.7383H137.289ZM139.521 38.0293V22.1738H141.473V28.3965H143.828V29.9961H141.473V38.0293H139.521ZM152.306 23.7383C152.297 28.5371 150.987 32.6592 145.134 35.5684L144.062 34.0918C146.813 32.7383 148.456 31.1475 149.379 29.2666L144.431 29.7324L144.185 28.0449L149.968 27.6846C150.17 26.9375 150.302 26.1553 150.363 25.3203H145.011V23.7383H152.306ZM154.538 38.0293V22.1738H156.489V28.3965H158.845V29.9961H156.489V38.0293H154.538ZM166.285 23.0703C169.695 23.0791 172.218 24.7754 172.209 27.3594C172.218 29.7412 170.17 31.332 167.252 31.6221V34.5312H173.58V36.1309H159.061V34.5312H165.318V31.6221C162.436 31.332 160.388 29.7412 160.397 27.3594C160.388 24.7754 162.901 23.0791 166.285 23.0703ZM162.313 27.3594C162.304 29.0732 163.965 30.1016 166.285 30.1016C168.641 30.1016 170.293 29.0732 170.293 27.3594C170.293 25.6982 168.641 24.6436 166.285 24.6523C163.965 24.6436 162.304 25.6982 162.313 27.3594ZM188.597 34.6016V36.2188H174.077V34.6016H180.335V32.0176H175.8V26.8145H184.941V24.8457H175.765V23.2637H186.874V28.3613H177.751V30.418H187.243V32.0176H182.269V34.6016H188.597ZM198.837 25.9883C198.82 28.9062 200.358 31.8242 202.933 32.9316L201.773 34.4961C199.945 33.6523 198.609 31.9736 197.87 29.8994C197.141 32.1318 195.77 33.96 193.845 34.8652L192.65 33.2305C195.295 32.0879 196.842 29.0557 196.851 25.9883V23.457H198.837V25.9883ZM204.075 38.082V22.1738H206.044V38.082H204.075ZM213.537 24.9336C213.537 26.8936 214.794 28.8184 217.299 29.6445L216.315 31.1562C214.531 30.5586 213.274 29.3721 212.579 27.8867C211.876 29.5127 210.558 30.8047 208.703 31.4375L207.666 29.9258C210.224 29.0732 211.569 27.0166 211.569 24.9336V24.7402H208.211V23.1758H216.842V24.7402H213.537V24.9336ZM209.793 34.0566V32.4922H220.375V38.0645H218.424V34.0566H209.793ZM218.424 31.7539V22.1738H220.375V26.1465H222.59V27.7812H220.375V31.7539H218.424ZM235.304 22.1738V28.502H237.747V30.1191H235.304V38.0645H233.37V22.1738H235.304ZM222.771 26.1816V24.6172H226.533V22.4023H228.484V24.6172H232.14V26.1816H222.771ZM223.509 30.9629C223.491 28.7656 225.197 27.21 227.517 27.2188C229.802 27.21 231.498 28.7656 231.507 30.9629C231.498 33.1514 229.802 34.6895 227.517 34.6895C225.197 34.6895 223.491 33.1514 223.509 30.9629ZM225.372 30.9629C225.364 32.2549 226.269 33.0811 227.517 33.0723C228.739 33.0811 229.626 32.2549 229.644 30.9629C229.626 29.6709 228.739 28.8184 227.517 28.8184C226.269 28.8184 225.364 29.6709 225.372 30.9629ZM251.147 22.1738V38.0645H249.178V22.1738H251.147ZM237.981 33.6875C242.147 31.71 244.063 29.0205 244.414 25.4082H238.789V23.8613H246.401C246.401 28.5898 244.564 32.6064 239 35.252L237.981 33.6875Z" fill="#334155"/>
</svg>
